<?xml version="1.0" encoding="UTF-8" standalone="no"?>
<svg
   xmlns:dc="http://purl.org/dc/elements/1.1/"
   xmlns:cc="http://creativecommons.org/ns#"
   xmlns:rdf="http://www.w3.org/1999/02/22-rdf-syntax-ns#"
   xmlns:svg="http://www.w3.org/2000/svg"
   xmlns="http://www.w3.org/2000/svg"
   xmlns:sodipodi="http://sodipodi.sourceforge.net/DTD/sodipodi-0.dtd"
   xmlns:inkscape="http://www.inkscape.org/namespaces/inkscape"
   inkscape:version="1.0 (4035a4f, 2020-05-01)"
   sodipodi:docname="line.svg"
   id="svg8"
   version="1.1"
   viewBox="0 0 234.77758 14.202066"
   height="14.202066mm"
   width="234.77759mm">
  <defs
     id="defs2" />
  <sodipodi:namedview
     inkscape:guide-bbox="true"
     showguides="true"
     inkscape:window-maximized="1"
     inkscape:window-y="23"
     inkscape:window-x="0"
     inkscape:window-height="765"
     inkscape:window-width="1440"
     showgrid="false"
     inkscape:document-rotation="0"
     inkscape:current-layer="layer1"
     inkscape:document-units="mm"
     inkscape:cy="-58.324969"
     inkscape:cx="434.49785"
     inkscape:zoom="0.8408634"
     inkscape:pageshadow="2"
     inkscape:pageopacity="0.0"
     borderopacity="1.0"
     bordercolor="#666666"
     pagecolor="#ffffff"
     id="base" />
  <metadata
     id="metadata5">
    <rdf:RDF>
      <cc:Work
         rdf:about="">
        <dc:format>image/svg+xml</dc:format>
        <dc:type
           rdf:resource="http://purl.org/dc/dcmitype/StillImage" />
        <dc:title></dc:title>
      </cc:Work>
    </rdf:RDF>
  </metadata>
  <g
     transform="translate(54.298343,-271.19984)"
     id="layer1"
     inkscape:groupmode="layer"
     inkscape:label="Layer 1">
    <path
       d="m -54.298343,285.37924 c 3.01868,0.0813 6.031804,-0.068 9.043072,-0.2591 2.556458,-0.21006 5.148002,-0.36155 7.636929,-1.03619 1.664795,-0.45126 2.067904,-0.71316 3.617493,-1.42494 0.674652,-0.407 1.374297,-0.7752 2.023957,-1.22101 1.261909,-0.86596 3.148082,-2.64359 3.152515,-4.33947 7.67e-4,-0.29271 -0.151292,-0.56554 -0.226938,-0.8483 -0.193745,-0.20759 -0.335262,-0.4809 -0.581233,-0.62277 -0.718069,-0.41417 -1.57784,-0.31812 -2.337728,-0.13908 -1.895509,0.44662 -3.296174,1.45875 -4.866004,2.54194 -0.308991,0.33702 -0.67499,0.62953 -0.926971,1.01106 -0.594619,0.90031 -0.532791,1.93204 0.241374,2.69725 0.648313,0.64082 1.295895,0.78994 2.126496,1.11972 3.891673,0.9839 8.000775,0.86969 11.986845,0.82733 4.489606,-0.0888 8.946113,-0.79762 13.228103,-2.15445 0.9105426,-0.28852 1.8036939,-0.62929 2.7055394,-0.94393 2.5989703,-1.00979 5.0449876,-2.38779 7.22419381,-4.12974 0.62339272,-0.49831 1.97293969,-1.64935 2.40541969,-2.46115 0.1460658,-0.27418 0.1178983,-0.61003 0.1768475,-0.91505 -0.1884442,-0.20842 -0.3186298,-0.49078 -0.5653352,-0.62528 -0.7624419,-0.41566 -1.79266587,-0.29617 -2.57563673,-0.12345 -2.01340767,0.44414 -3.55244127,1.51733 -5.23555117,2.63721 -0.826545,0.73095 -2.8042181,2.22866 -1.8531839,3.596 0.4167928,0.59924 1.0765393,0.79231 1.6976513,1.0837 0.4133453,0.11704 0.8199966,0.26101 1.2400359,0.35112 1.0715307,0.22987 2.3216632,0.33711 3.4027877,0.41195 2.21166263,0.15311 4.4296885,0.17017 6.6453199,0.20055 5.1003018,0.0501 10.2409918,0.11781 15.2695298,-0.88178 1.096796,-0.21803 2.173698,-0.52633 3.260548,-0.7895 2.925659,-0.9389 5.748237,-2.22683 8.236648,-4.05097 0.614447,-0.45043 1.677638,-1.3464 1.902167,-2.22116 0.05509,-0.21465 -0.09077,-0.43382 -0.136158,-0.65073 -0.247414,-0.0962 -0.477686,-0.26677 -0.742246,-0.28858 -1.914266,-0.15778 -4.398817,1.49609 -5.263856,3.11859 -0.184648,0.34633 -0.209421,0.75651 -0.314132,1.13477 0.04829,0.32388 0.0263,0.66641 0.144859,0.97165 0.483407,1.24443 1.961484,1.62256 3.104203,1.91104 1.66057,0.41922 2.201127,0.40723 3.971621,0.59526 8.072183,0.37782 16.159998,-0.80723 24.010659,-2.62469 1.596536,-0.3696 3.169005,-0.83638 4.753507,-1.25457 2.131433,-0.82251 3.766569,-1.23771 5.555559,-2.63966 0.334042,-0.26177 1.027653,-1.07861 0.339604,-1.51454 -0.300361,-0.1903 -0.68684,-0.2164 -1.04225,-0.22714 -0.493022,-0.0149 -0.981331,0.1008 -1.471996,0.15119 -1.864736,0.51162 -3.77195,1.39394 -5.034084,2.9227 -0.533852,0.64662 -1.043472,1.53106 -0.544335,2.39293 0.244469,0.42213 0.725723,0.65205 1.088583,0.97807 0.663324,0.26589 1.304901,0.59426 1.989973,0.79766 0.90528,0.26877 1.834338,0.45775 2.765616,0.61427 5.585404,0.93869 11.218386,0.44609 16.829466,0.0884 1.808495,-0.11025 3.615219,-0.25501 5.42549,-0.33074 4.694227,-0.19637 7.899879,-0.22596 12.633989,0.0747 6.51417,0.41364 12.97578,1.45567 19.43292,2.36177 7.76066,1.08611 15.65944,2.11825 23.46891,0.86025 3.64318,-0.58687 6.07345,-1.43248 9.60112,-2.47941 5.10456,-1.55215 10.10187,-3.45167 15.24212,-4.88827 2.19295,-0.61288 2.87216,-0.73658 4.99946,-1.20917 1.80088,-0.35246 3.62873,-0.47132 5.4562,-0.57055 0,0 0.4579,-0.33657 0.4579,-0.33657 v 0 c -1.83722,0.10359 -3.67464,0.22771 -5.48535,0.58096 -2.12476,0.47797 -2.84305,0.61286 -5.03021,1.22812 -5.15787,1.45095 -10.17076,3.36832 -15.29466,4.92891 -3.51373,1.04464 -5.97585,1.89863 -9.60438,2.49171 -7.85785,1.28436 -15.69173,0.26575 -23.5017,-0.82425 -6.45958,-0.90676 -12.9228,-1.93979 -19.43859,-2.36256 -4.724298,-0.30652 -7.915289,-0.29069 -12.600269,-0.10388 -1.806525,0.072 -3.609528,0.21491 -5.41429,0.32236 -4.470162,0.27508 -8.943105,0.65273 -13.421694,0.29338 -1.824693,-0.14642 -4.274571,-0.50223 -6.067623,-1.04366 -0.674156,-0.20357 -1.304724,-0.53047 -1.957086,-0.7957 -0.352756,-0.31596 -0.820692,-0.53821 -1.05827,-0.94787 -0.487045,-0.83982 0.02553,-1.70939 0.546733,-2.33315 1.071721,-1.28261 2.480476,-1.94693 4.054501,-2.3691 0.482743,-0.052 0.962739,-0.16243 1.448231,-0.15596 1.248429,0.0166 1.794838,0.62111 0.677244,1.60194 -1.171909,1.0285 -3.51848,1.71263 -4.69908,2.17614 -1.593032,0.42571 -3.173351,0.90222 -4.7791,1.27714 -7.807007,1.8228 -15.860236,2.97744 -23.88881,2.55346 -1.763694,-0.19172 -2.291853,-0.18056 -3.9453,-0.6003 -1.113655,-0.28272 -2.577785,-0.6513 -3.0513,-1.86703 -0.115726,-0.29712 -0.0937,-0.6308 -0.140546,-0.94621 0.103902,-0.3696 0.12886,-0.77121 0.311708,-1.10879 0.815404,-1.50545 2.489631,-2.64805 4.241763,-2.55841 0.24833,0.0127 0.471056,0.15944 0.706583,0.23916 0.04463,0.2013 0.185618,0.40431 0.133879,0.6039 -0.229015,0.88345 -1.248926,1.69513 -1.864963,2.17627 -2.162165,1.68871 -4.774322,2.68155 -7.342005,3.55384 -1.085495,0.26389 -2.160945,0.5732 -3.256486,0.79166 -5.016561,1.00039 -10.147403,0.9353 -15.23587,0.86787 -2.2091279,-0.0338 -4.4211583,-0.0525 -6.6261164,-0.20927 -1.0729066,-0.0763 -2.3150724,-0.18726 -3.3785228,-0.41603 -0.4162054,-0.0895 -0.8194092,-0.23139 -1.2291139,-0.34709 -0.599141,-0.27957 -1.2560882,-0.4727 -1.6609007,-1.04972 -0.9066,-1.29228 1.0636515,-2.83282 1.8492946,-3.51172 0.3243051,-0.24362 0.6238902,-0.52421 0.9729206,-0.73087 0.9314973,-0.55151 2.2153906,-1.11776 3.2816535,-1.35991 0.76774671,-0.17435 1.76919726,-0.29745 2.5238471,0.0926 0.2338811,0.12089 0.3613282,0.38301 0.541991,0.57452 -0.056605,0.29353 -0.028792,0.61701 -0.1698175,0.88059 -0.4331441,0.80958 -1.75436738,1.93596 -2.3785512,2.43427 -1.9181154,1.53132 -4.0139884,2.7468 -6.314985,3.61298 -0.900422,0.31482 -1.7921551,0.6557 -2.7012714,0.94447 -4.2750259,1.3579 -8.7240589,2.07266 -13.2079329,2.15701 -3.982141,0.0382 -8.050063,0.14919 -11.939298,-0.83421 -0.81405,-0.32213 -1.459287,-0.47154 -2.096081,-1.09737 -0.757723,-0.74468 -0.805111,-1.74769 -0.221032,-2.62 0.251868,-0.37616 0.614766,-0.66468 0.922149,-0.99702 0.274163,-0.22453 0.521051,-0.48726 0.822489,-0.67358 1.256329,-0.77651 3.855486,-2.0422 5.34458,-1.21019 0.239616,0.13388 0.378273,0.39783 0.567409,0.59674 0.07322,0.2732 0.221318,0.53677 0.219665,0.81961 -0.01205,2.06183 -2.646236,4.0231 -4.211103,4.95959 -1.537657,0.71248 -1.959902,0.985 -3.613211,1.43716 -2.483645,0.67924 -5.072202,0.82654 -7.624257,1.03688 -2.996502,0.19153 -5.995591,0.34257 -8.999351,0.23711 0,0 -0.495107,0.35435 -0.495107,0.35435 z"
       id="path967"
       style="opacity:0.73;fill:#0467a6;fill-opacity:0.937255;stroke:none;stroke-width:0.635;stroke-linejoin:bevel;stroke-opacity:1" />
  </g>
</svg>
